# xmcd
#
# Track frame offsets:
#	150
#	17687
#	43649
#	66116
#	85641
#	100820
#	123834
#	140101
#	161833
#	180504
#
# Disc length: 2662 seconds
#
# Revision: 0
# Processed by: cddbd v1.5.2PL0 Copyright (c) Steve Scherf et al.
# Submitted via: audiograbber 1.83.01
#
DISCID=7d0a640a
DTITLE=Haila - Grandes Exitos
DYEAR=2006
DGENRE=Salsa
TTITLE0=Andar Andando
TTITLE1=No Me Parezco A Nadie
TTITLE2=Tratado De Timba Y Salsa
TTITLE3=Bemba Colora
TTITLE4=Quimbara
TTITLE5=Qué Te Pedí
TTITLE6=Solita
TTITLE7=Cómo Voy A Decirte
TTITLE8=Quién Fue
TTITLE9=Esto Si Sabe A Cuba
EXTD=
EXTT0=
EXTT1=
EXTT2=
EXTT3=
EXTT4=
EXTT5=
EXTT6=
EXTT7=
EXTT8=
EXTT9=
PLAYORDER=
